<svg width="12" height="13" viewBox="0 0 12 13" fill="none" xmlns="http://www.w3.org/2000/svg">
<ellipse cx="6.04443" cy="6.494" rx="5.90943" ry="5.90943" fill="url(#paint0_linear_6_3681)"/>
<path d="M3.13465 9.57485H4.37115V4.99981H3.13465V9.57485ZM3.7529 2.98019C3.34073 2.98019 3.011 3.30993 3.011 3.72209C3.011 4.13426 3.34073 4.46399 3.7529 4.46399C4.16507 4.46399 4.4948 4.13426 4.4948 3.72209C4.4948 3.30993 4.16507 2.98019 3.7529 2.98019ZM6.4732 5.70049V4.99981H5.2367V9.57485H6.4732V7.22551C6.4732 5.90657 8.16308 5.82414 8.16308 7.22551V9.57485H9.39958V6.77212C9.39958 4.54642 7.05023 4.62886 6.4732 5.70049Z" fill="#1F2626"/>
<defs>
<linearGradient id="paint0_linear_6_3681" x1="0.134995" y1="6.494" x2="11.9539" y2="6.494" gradientUnits="userSpaceOnUse">
<stop stop-color="#00F5A0"/>
<stop offset="1" stop-color="#00D9F5"/>
</linearGradient>
</defs>
</svg>
